<svg xmlns="http://www.w3.org/2000/svg" xmlns:svgjs="http://svgjs.com/svgjs" xmlns:xlink="http://www.w3.org/1999/xlink"
     width="288" height="288">
  <svg xmlns="http://www.w3.org/2000/svg" width="288" height="288" viewBox="0 0 36 36">
    <path
      d="M30.281 1c-.216 0-.375.168-.375.406v8.531c0 .239.16.407.375.407h2.344c.216 0 .375-.168.375-.406V1.405c0-.238-.159-.406-.375-.406h-2.344zm-18.25 1.031c-.24.01-.422.044-.531.094h-.031c-.175.065-.245.094-.25.094L3.656 7.03c-.634.4-.834 1.28-.437 1.938l.187.344c.303.5.83.707 1.344.624.169-.027.337-.084.5-.187l7.063-4.156c.706-1.224 1.356-1.483 2.624-1.438 1.832-.038 3.758-.031 5.626-.031v1H15.03c-.752 0-1.108.181-1.375.375-.121.093-.21.237-.312.375-.121.221-.25.442-.25.813 0 .629.184.966.5 1.218.316.253.818.407 1.437.407h2.719c.716 0 1.473.258 2.219.5.742.24 1.468.47 1.906.5h2.719c.807-.006 1.523-.244 2.187-.5.666-.258 1.278-.563 1.938-.563h.187V2.031H12.031zM17.97 11.5c-3.603 0-6.469 2.906-6.469 6.5 0 3.596 2.866 6.5 6.469 6.5 3.602 0 6.531-2.908 6.531-6.5 0-3.59-2.93-6.5-6.531-6.5zm-2.5 3h5v1h-1.844c.235.3.391.64.469 1h1.375v1h-1.375a2.49 2.49 0 0 1-1.969 1.938l2.406 2.343-.718.719-3.063-3h-.281v-1H16.5c.933 0 1.423-.451 1.594-1H15.5v-1h2.594c-.17-.549-.66-1-1.594-1h-1.031v-1zM3.375 25.656c-.216 0-.375.168-.375.407v8.53c0 .24.159.407.375.407h2.344c.216 0 .375-.168.375-.406v-8.532c0-.238-.159-.406-.375-.406H3.375zm28.25.375c-.126-.013-.246.01-.375.032a1.317 1.317 0 0 0-.5.187l-7.063 4.156c-.853 1.11-1.128 1.284-2.625 1.438-1.864.033-3.782.032-5.656.031v-1h5.563c.752 0 1.108-.18 1.375-.375.12-.093.21-.238.312-.375.122-.221.25-.442.25-.813 0-.629-.184-.966-.5-1.218-.316-.253-.818-.407-1.437-.407H18.25c-.716 0-1.473-.258-2.219-.5-.745-.24-1.5-.473-1.937-.5h-2.688c-.808.005-1.522.243-2.187.5-.666.258-1.278.563-1.938.563h-.187v6.219h16.875c.238-.01.42-.044.531-.094h.031c.175-.065.245-.094.25-.094l7.563-4.812c.634-.4.834-1.28.437-1.938l-.187-.343a1.359 1.359 0 0 0-.969-.657z"
      color="#000" font-family="sans-serif" font-weight="400" overflow="visible"
      style="text-indent:0;text-align:start;line-height:normal;text-transform:none;block-progression:tb" fill="#00ff3f"
      class="color000 svgShape"/>
  </svg>
</svg>
